<?xml version="1.0" encoding="utf-8"?>
<!-- Generator: Adobe Illustrator 16.0.0, SVG Export Plug-In . SVG Version: 6.00 Build 0)  -->
<!DOCTYPE svg PUBLIC "-//W3C//DTD SVG 1.1//EN" "http://www.w3.org/Graphics/SVG/1.1/DTD/svg11.dtd">
<svg version="1.1" xmlns="http://www.w3.org/2000/svg" xmlns:xlink="http://www.w3.org/1999/xlink" x="0px" y="0px" width="1000px"
	 height="1000px" viewBox="0 0 1000 1000" enable-background="new 0 0 1000 1000" xml:space="preserve">
<g id="Capa_1" display="none">
	<rect display="inline" fill="#FFFFFF" width="1000" height="1000"/>
</g>
<g id="Capa_2">
	<path fill-rule="evenodd" clip-rule="evenodd" fill="#FFFFFF" d="M238.12,487.249l42.409-60.461
		c1.128-1.667,0.97-3.145-0.483-4.429c-0.97-0.771-2.182-1.156-3.636-1.156h-2.666c-1.617,0-2.749,0.384-3.393,1.156l-34.412,48.522
		l-6.518,9.375c-0.1-0.17-0.213-0.333-0.351-0.474c-1.154-1.175-2.554-2.248-3.292-3.656c-0.802-1.531-2.034-2.546-3.077-3.792
		c-0.118-0.142-0.413-0.075-0.449-0.325c-0.814-0.386-1.45-0.975-1.909-1.679c-0.353-0.207-0.686-0.442-0.99-0.707
		c-0.341-0.066-0.67-0.165-0.986-0.295c-0.574,0.54-1.794,2.12-2.359,2.668c-1.75,1.696-3.494,3.397-5.216,5.121
		c-2.194,2.193-4.347,4.43-6.555,6.608c-0.917,0.905-1.797,2.375-3.322,1.547c-1.058-0.572-2.136-1.577-2.596-2.651
		c-0.44-1.024-1.124-1.684-1.773-2.46c-0.168-0.201-0.322-0.639-0.219-0.803c0.65-1.036,1.278-2.113,2.094-3.014
		c1.857-2.048,3.819-4,5.914-6.173c-1.018-1.106-1.984-2.1-2.884-3.151c-1.697-1.982-3.4-3.962-4.984-6.033
		c-0.278-0.363-0.219-1.349,0.084-1.728c1.138-1.423,2.477-2.686,3.674-4.066c0.937-1.079,1.829-2.209,2.634-3.389
		c0.334-0.49,0.547-1.176,0.518-1.757c-0.019-0.385-0.574-0.738-0.876-1.116c-1.078-1.343-2.123-2.713-3.231-4.031
		c-0.917-1.087-1.979-2.059-2.817-3.198c-0.245-0.332-0.105-1.156,0.144-1.592c0.378-0.661,1.029-1.16,1.522-1.764
		c1.213-1.481,2.307-3.079,3.646-4.435c0.623-0.63,0.898-1.307,0.572-1.862c-0.4-0.681-1.17-1.19-1.871-1.626
		c-0.277-0.172-0.958-0.105-1.187,0.122c-1.212,1.202-2.386,2.453-3.478,3.767c-0.534,0.643-0.755,1.551-1.304,2.176
		c-1.045,1.189-2.314,2.191-3.298,3.425c-0.353,0.442-0.438,1.51-0.143,1.97c0.58,0.904,1.531,1.563,2.292,2.357
		c0.792,0.825,1.768,1.578,2.25,2.566c0.57,1.168,1.366,2.035,2.237,2.928c0.259,0.266,0.3,1.081,0.084,1.415
		c-0.756,1.176-1.612,2.301-2.531,3.357c-1.392,1.601-2.898,3.101-4.294,4.698c-0.534,0.612-0.624,1.28,0.106,1.979
		c0.903,0.863,1.689,1.854,2.483,2.824c1.214,1.484,2.321,3.062,3.613,4.473c0.693,0.758,1.096,1.926,0.421,2.713
		c-1.069,1.247-2.257,2.39-3.336,3.63c-1.261,1.448-2.473,2.941-3.666,4.447c-0.126,0.16-0.087,0.652,0.062,0.795
		c0.905,0.864,1.665,1.745,2.294,2.905c0.772,1.424,2.278,2.436,3.379,3.701c0.73,0.84,1.996,1.559,1.557,2.898
		c-0.257,0.785-1.005,1.421-1.58,2.083c-0.835,0.962-2.104,1.755-2.479,2.86c-0.526,1.552-1.785,2.318-2.697,3.423
		c-0.745,0.904-0.891,1.525,0.016,2.353c0.487,0.444,0.972,0.9,1.394,1.405c1.41,1.686,2.845,3.355,4.156,5.116
		c0.484,0.65,1.624,1.056,1.2,2.16c-0.194,0.506-0.668,0.901-1,1.359c-0.825,1.136-1.573,2.333-2.476,3.402
		c-1.05,1.242-2.299,2.321-3.319,3.585c-0.339,0.42-0.446,1.261-0.275,1.786c0.167,0.514,0.844,0.849,1.256,1.301
		c0.847,0.927,1.913,1.765,2.427,2.856c0.504,1.068,1.177,1.799,2.01,2.566c0.276,0.255,0.632,0.508,0.925,0.804l-9.607,13.956
		V425.053c0-1.026-0.447-1.926-1.333-2.695c-0.89-0.771-2.06-1.156-3.514-1.156h-2.424c-1.454,0-2.628,0.384-3.514,1.156
		c-0.89,0.769-1.333,1.668-1.333,2.695v123.812c0,5.135,3.067,7.702,9.209,7.702c3.552,0,6.785-1.926,9.693-5.777l36.835-53.914
		l41.684,57.959c0.643,0.77,1.855,1.154,3.635,1.154h2.666c3.23,0,4.847-1.154,4.847-3.466c0-0.641-0.242-1.348-0.726-2.117
		L238.12,487.249z M196.559,519.296c-0.653-0.729-0.582-1.28,0.01-1.934c0.904-0.998,1.798-2.005,2.678-3.022
		c1.038-1.199,2.084-2.393,3.075-3.631c0.624-0.779,1.637-1.499,1.066-2.7c-0.378-0.8-0.875-1.583-1.473-2.23
		c-1.774-1.925-3.659-3.75-5.412-5.694c-0.3-0.332-0.42-1.252-0.182-1.572c1.236-1.659,2.554-3.269,3.958-4.791
		c2.537-2.748,12.41-12.675,14.761-15.136c0.73,0.528,1.368,0.829,1.782,1.319c1.249,1.479,6.74,7.582,8.26,9.138
		c0.121,0.123,0.239,0.249,0.357,0.375l-25.558,33.843C198.783,521.93,197.708,520.58,196.559,519.296z"/>
	<path fill-rule="evenodd" clip-rule="evenodd" fill="#FFFFFF" d="M484.351,494.068c-4.31-3.891-9.771-6.547-16.37-7.984
		c0.302-0.171,0.591-0.331,0.883-0.493c6.924-2.595,12.002-6.51,15.186-11.779c3.354-5.553,5.169-11.435,5.439-17.637
		c0-13.308-5.173-22.999-15.512-29.075c-7.388-4.264-19.14-6.396-35.254-6.396h-21.757c-3.494,0-5.812,0.581-6.951,1.745
		c-1.142,1.162-1.712,3.425-1.712,6.784v118.235c0,3.488,0.635,5.847,1.912,7.074c1.276,1.23,3.66,1.841,7.152,1.841h29.213
		c14.101,0,24.981-2.066,32.635-6.202c5.238-2.972,9.232-7.299,11.986-12.986c2.75-5.686,4.129-11.305,4.129-16.862
		c0-5.556-0.738-10.337-2.216-14.343C491.635,501.984,488.713,498.011,484.351,494.068z M477.121,445.39
		c0.116,0.227,0.229,0.455,0.346,0.682c1.285,2.979,1.949,6.274,1.949,9.908c0,6.59-2.388,12.535-7.151,17.832
		c-4.771,5.301-5.186,8.046-16.33,8.046c0,0-4.12,2.828-4.12,4.572s3.716,4.537,3.716,4.537c11.816,0,13.439,2.712,19.954,8.333
		c6.515,5.621,9.771,12.245,9.771,19.867c0,7.949-2.193,14.185-6.567,18.715c-0.905-0.874-1.732-1.85-2.802-2.444
		c-1.614-0.9-2.8-2.15-4.175-3.252c-0.345-0.278-1.466-0.116-1.894,0.229c-1.279,1.022-2.2,2.619-3.624,3.273
		c-1.727,0.794-2.833,2.081-4.22,3.148c-0.275,0.212-1.162-0.083-1.627-0.358c-1.3-0.777-2.134-2.079-3.761-2.589
		c-0.984-0.309-1.675-1.483-2.489-2.274c-0.463-0.451-0.833-1.057-1.385-1.331c-0.497-0.246-1.363-0.383-1.758-0.13
		c-1.311,0.847-2.514,1.854-3.701,2.864c-1.398,1.191-2.705,2.484-4.123,3.657c-0.314,0.258-1.064,0.402-1.383,0.225
		c-1.218-0.686-2.409-1.452-3.488-2.324c-1.681-1.359-3.228-2.874-4.908-4.234c-0.579-0.471-1.197-0.578-1.931,0.218
		c-0.906,0.976-2.208,1.607-3.294,2.442c-0.98,0.756-1.865,1.625-2.857,2.362c-0.804,0.597-1.646,1.229-2.58,1.564
		c-1.179,0.424-1.72-0.74-2.442-1.313c-0.639-0.507-1.257-1.039-1.871-1.574v-21.922c1.079-1.159,2.229-2.258,3.36-3.378
		c0.602-0.595,0.926-1.437,1.482-2.085c1.079-1.264,2.243-2.462,3.354-3.703c1.005-1.123,1.979-2.271,2.971-3.403
		c0.752-0.858,1.516-1.705,2.272-2.56c1.005-1.139,1.989-2.297,3.019-3.418c1.205-1.312,2.531-3.435,3.761-4.729
		c0.139-0.146,1.981-2.216,1.863-3.696c-0.074-0.949-2.646-3.363-3.922-5.231c-0.713-1.044-1.425-1.975-1.919-2.507
		c-0.672-0.725-1.191-1.579-1.861-2.304c-1.236-1.333-2.58-2.58-3.79-3.935c-0.858-0.961-1.501-2.095-2.357-3.056
		c-1.178-1.323-2.501-2.528-3.69-3.844c-0.626-0.692-1.034-1.566-1.661-2.26c-0.928-1.027-1.923-1.999-2.882-3.001V442.18
		c0.965-0.866,1.948-1.718,2.946-2.551c0.364-0.304,1.245-0.536,1.54-0.335c1.526,1.036,2.976,2.184,4.383,3.367
		c1.264,1.06,2.349,2.332,3.699,3.266c0.542,0.372,1.809,0.399,2.349,0.041c1.356-0.903,2.481-2.124,3.715-3.198
		c0.571-0.5,1.164-0.979,1.776-1.43c0.813-0.6,1.71-1.105,2.469-1.756c0.715-0.616,1.329-0.57,1.952,0.011
		c1.551,1.444,2.928,3.116,4.673,4.289c1.042,0.703,2.14,1.295,3.114,2.129c0.308,0.263,1.416,0.042,1.888-0.298
		c1.958-1.407,3.821-2.934,5.698-4.442c0.62-0.499,1.201-1.05,1.755-1.619c0.18-0.188,0.372-0.296,0.568-0.37
		c0.196-0.329,0.437-0.633,0.713-0.91c0.457-0.837,2.994-2.804,4.604-3.701c2.611,1.176,4.734,2.588,6.348,4.251
		c0.488,0.486,0.938,0.99,1.377,1.503C475.246,442.356,476.873,444.895,477.121,445.39z M418.375,500.763
		c0.637-0.778,1.218-1.609,1.871-2.375c0.726-0.848,1.569-1.604,2.289-2.457c1.35-1.601,3.187-2.775,4.165-4.73
		c0.502-1.011,1.693-1.689,2.386-2.641c0.329-0.453,0.517-1.381,0.25-1.776c-0.835-1.238-1.894-2.347-2.911-3.466
		c-0.883-0.971-1.873-1.854-2.731-2.842c-0.956-1.1-1.774-2.31-2.728-3.412c-0.781-0.906-1.718-1.691-2.508-2.593
		c-0.027-0.032-0.054-0.066-0.083-0.099v-7.123c0.533,0.609,1.064,1.221,1.606,1.815c2.33,2.557,4.747,5.042,7.059,7.613
		c0.926,1.03,1.586,2.276,2.519,3.299c1.526,1.674,3.209,3.215,4.753,4.876c0.616,0.664,1.137,1.451,1.523,2.258
		c0.542,1.129-0.684,1.592-1.201,2.28c-0.926,1.229-1.983,2.368-3.002,3.53c-0.753,0.859-1.541,1.687-2.297,2.542
		c-1.007,1.14-1.987,2.301-2.998,3.438c-0.678,0.763-1.412,1.48-2.082,2.249c-1.075,1.232-2.09,2.515-3.182,3.732
		c-0.879,0.981-1.797,1.93-2.698,2.892V500.763z M462.162,433.153c-0.041,0.035-0.072,0.06-0.114,0.096
		c-2.255,1.907-7.234,5.704-9.554,7.534c-0.322,0.254-1.243,0.22-1.6-0.04c-1.656-1.199-3.224-2.515-4.803-3.813
		c-0.933-0.766-1.861-1.542-2.735-2.372c-0.809-0.767-1.53-0.733-2.427,0c-1.003,0.823-2.182,1.449-3.18,2.277
		c-1.435,1.188-2.742,2.52-4.183,3.701c-0.37,0.304-1.168,0.526-1.544,0.351c-0.953-0.448-1.828-1.086-2.638-1.752
		c-1.392-1.144-2.707-2.37-4.061-3.554c-0.49-0.429-0.955-0.905-1.511-1.24c-1.218-0.736-2.448-0.343-3.821,1.05
		c-0.531,0.539-1.071,1.071-1.615,1.598v-6.128c0.85-0.001,1.699,0.001,2.549,0.001c4.741-0.002,9.482,0,14.223,0
		c4.7,0,9.399-0.037,14.099,0.012c0.205,0.002,0.407,0.013,0.612,0.015C454.589,431.338,458.693,432.09,462.162,433.153z
		 M449.8,546.886h-31.425v-5.469c0.878,0.741,1.755,1.487,2.615,2.25c0.901,0.803,2.368,0.813,3.252-0.024
		c1.865-1.753,3.747-3.493,5.682-5.173c0.596-0.518,1.383-0.84,2.099-1.224c0.122-0.066,0.375-0.066,0.476,0.011
		c1.495,1.15,2.998,2.287,4.447,3.487c1.243,1.029,2.378,2.178,3.637,3.191c0.875,0.702,2.024,0.302,2.849-0.348
		c1.513-1.188,2.661-2.765,4.623-3.523c1.054-0.406,1.888-1.486,2.648-2.395c0.655-0.783,1.319-0.583,1.836-0.139
		c1.59,1.37,3.038,2.892,4.642,4.244c0.773,0.651,1.785,1.046,2.671,1.577c0.492,0.296,1.021,0.965,1.412,0.891
		c0.736-0.143,1.418-0.66,2.063-1.1c0.883-0.601,1.745-1.24,2.556-1.926c1.379-1.164,2.761-2.33,4.04-3.59
		c0.605-0.592,1.183-0.707,1.725-0.196c1.19,1.123,2.289,2.345,3.736,3.265C469.494,544.821,460.967,546.886,449.8,546.886z"/>
	<path fill-rule="evenodd" clip-rule="evenodd" fill="#FFFFFF" d="M570.927,504.91c14.289,0,24.757-3.647,31.408-10.949
		c6.647-7.297,9.975-15.642,9.975-25.037c0-15.43-8.513-31.602-24.222-40.457c-4.179-2.355-8.999-4.016-14.215-5.122
		c-0.283-0.137-0.566-0.256-0.854-0.274c-0.226-0.013-0.45-0.021-0.676-0.033c-5.396-1.017-11.184-1.468-17.122-1.468h-29.078
		c-3.538,0-5.907,0.637-7.108,1.904c-1.203,1.27-1.805,3.617-1.805,7.044l-0.764,123.048c0,1.017,0.39,1.905,1.169,2.666
		c0.777,0.762,1.805,1.143,3.078,1.143h2.121c1.271,0,2.298-0.381,3.079-1.143c0.773-0.761,1.164-1.649,1.164-2.666l0.306-48.916
		c8.707,0.017,17.416,0.021,26.124,0.028c1.147,0.433,2.448,0.966,3.196,1.943l42.532,49.23c0.851,1.017,2.194,1.522,4.034,1.522
		h4.245c1.979,0,2.971-0.952,2.971-2.856c0-0.505-0.083-4.432-1.782-6.717l-34.626-37.024c-1.27-2.045-3.07-3.799-4.679-5.757
		c0.05-0.044,0.081-0.074,0.12-0.111H570.927z M597.086,483.534c-0.592,1.296-1.303,2.42-2.313,3.401
		c-1.081,1.052-2.144,2.122-3.211,3.186c-1.478,1.038-3.184,1.973-5.146,2.793c-4.243,1.778-9.338,2.665-15.282,2.665h-9.337
		c-0.308,0-2.528,0-5.711,0.006c0.214-0.38,0.422-0.767,0.649-1.137c0.309-0.5,0.966-1.035,0.896-1.459
		c-0.12-0.735-0.633-1.431-1.075-2.08c-0.529-0.777-1.125-1.518-1.747-2.225c-1.313-1.49-2.641-2.969-4.009-4.407
		c-0.612-0.641-0.588-1.34,0.019-2.021c1.627-1.83,3.188-3.72,4.782-5.581c0.525-0.61,1.029-1.245,1.612-1.793
		c0.771-0.728,0.815-1.68,0.021-2.32c-0.128-0.104-0.345-0.179-0.382-0.307c-0.79-2.756-3.49-3.951-4.989-6.125
		c-0.47-0.678-0.976-1.329-1.427-2.019c-0.095-0.144-0.102-0.466-0.002-0.595c0.864-1.129,1.714-2.276,2.663-3.333
		c1.425-1.588,3.037-3.021,4.332-4.706c0.404-0.527,0.351-1.84-0.033-2.452c-0.792-1.253-1.979-2.251-2.949-3.4
		c-1.081-1.283-2.114-2.606-3.145-3.931c-0.361-0.465-0.972-1.056-0.889-1.476c0.132-0.685,0.659-1.355,1.168-1.893
		c1.262-1.334,2.659-2.539,3.896-3.894c0.804-0.883,1.523-1.883,2.069-2.939c0.24-0.461,0.172-1.361-0.139-1.775
		c-0.674-0.898-1.389-1.766-2.117-2.623c27.152,0.139,46.407,20.183,46.407,38.018c0,3.383-0.687,6.701-2.018,9.955
		C598.835,480.571,597.797,481.975,597.086,483.534z M527.437,495.918l0.05-7.815c0.185-0.259,0.374-0.514,0.577-0.754
		c1.129-1.343,2.324-2.63,3.463-3.964c0.999-1.171,1.941-2.392,2.946-3.557c0.821-0.952,1.697-1.855,2.816-3.073
		c0.107,0.692,0.228,1.114,0.229,1.536c0.008,5.797,0,11.593,0.021,17.39C532.685,495.73,528.696,495.805,527.437,495.918z
		 M527.575,473.822c1.114-1.164,4.055-4.844,4.538-5.406c0.906-1.051,1.906-2.017,2.889-3c0.819-0.821,0.788-2.446-0.041-3.267
		c-1.512-1.495-5.959-6.837-6.842-7.862c-0.133-0.154-0.283-0.295-0.42-0.447l0.046-7.38c0.398,0.49,0.798,0.977,1.197,1.461
		c0.33,0.398,0.899,0.625,1.155,1.052c1.754,2.924,4.121,5.352,6.476,7.744c0.866,0.88,0.949,1.658,0.951,2.645
		c0.009,3.045-0.093,6.095,0.046,9.135c0.062,1.368-0.635,2.163-1.429,2.985c-1.203,1.243-2.901,2.228-3.588,3.697
		c-1.168,2.492-3.37,3.917-5.023,5.87L527.575,473.822z M537.517,449.361c0,0.344-0.122,0.688-0.263,1.422
		c-1.803-1.956-3.329-3.56-4.797-5.215c-1.565-1.765-3.176-3.5-4.673-5.32l0.058-9.158h9.691
		C537.522,437.181,537.526,443.271,537.517,449.361z M541.949,495.642c0.002-0.403,0.004-0.807,0.004-1.211
		c0-10.245,0-20.491,0-30.737c0-10.867-0.002-21.735,0-32.604h7.41c0.775,0.887,1.636,1.694,2.398,2.586
		c0.651,0.762,0.736,1.32,0.079,2.042c-0.681,0.747-1.375,1.392-1.776,2.457c-0.385,1.02-1.553,1.743-2.382,2.593
		c-0.829,0.854-1.76,1.633-2.452,2.586c-0.302,0.413-0.374,1.353-0.104,1.751c0.935,1.381,2.026,2.663,3.131,3.919
		c1.155,1.315,2.431,2.523,3.568,3.853c0.3,0.353,0.544,1.136,0.357,1.456c-0.715,1.224-1.54,2.407-2.471,3.479
		c-1.102,1.269-2.408,2.358-3.519,3.622c-0.542,0.618-0.951,1.419-1.195,2.208c-0.13,0.425,0.063,1.133,0.372,1.48
		c1.464,1.644,3.07,3.161,4.52,4.816c0.856,0.975,1.599,2.075,2.217,3.213c0.211,0.386,0.074,1.232-0.229,1.579
		c-1.404,1.59-3.079,2.914-4.088,4.88c-0.507,0.984-1.464,1.755-2.28,2.556c-0.805,0.787-0.724,1.521,0.006,2.417
		c1.262,1.546,3.019,2.623,3.877,4.583c0.467,1.067,1.569,1.868,2.436,2.74c0.62,0.623,0.728,1.375,0.12,1.865
		c-0.674,0.544-1.238,1.173-1.766,1.83C547.54,495.61,544.705,495.623,541.949,495.642z"/>
	<path fill-rule="evenodd" clip-rule="evenodd" fill="#FFFFFF" d="M735.734,552.101l-48.469-123.376
		c-1.257-3.188-3.62-4.941-7.066-5.278c-0.234-0.17-0.476-0.317-0.732-0.386c-1.025-0.275-2.186-0.107-3.281-0.035
		c-0.355,0.023-0.857,0.253-1.007,0.539c-0.091,0.173-0.174,0.352-0.263,0.526c-1.931,0.802-3.296,2.283-4.09,4.442l-48.257,123.567
		c-0.135,0.364-0.201,0.794-0.207,1.275c-0.364,0.724-0.407,1.685,0.145,1.966c0.089,0.046,0.187,0.062,0.279,0.097
		c0.604,1.203,1.854,1.818,3.788,1.818h2.526c1.825,0,3.161-0.826,4.005-2.483l10.886-27.975c1.695,1.407,3.435,2.762,5.191,4.168
		c2.463-2.264,4.706-4.625,7.481-6.384c0.746-0.475,1.22-1.384,1.716-1.971c3.515,2.943,6.724,5.629,9.94,8.324
		c3.203-2.729,6.366-5.423,9.464-8.063c3.316,2.448,6.564,5.065,9.481,8.129c0.786-0.704,1.356-1.562,2.136-1.845
		c1.669-0.604,2.653-1.931,3.851-3.053c0.855-0.8,1.633-1.747,2.621-2.332c1.78-1.057,3.242,0.072,4.449,1.203
		c2.211,2.071,4.055,4.57,7.365,5.755c1.52-1.507,3.039-3.127,4.688-4.605c0.415-0.373,0.866-0.707,1.327-1.029l11.495,29.678
		c0.844,1.657,2.178,2.483,4.006,2.483h2.528c2.81,0,4.214-1.271,4.214-3.819C735.945,552.93,735.873,552.481,735.734,552.101z
		 M681.162,441.092c-1.273,0.013-2.549,0.017-3.822,0.011L681.162,441.092z M675.373,446.156c2.582,0,5.165-0.001,7.747-0.014
		l2.961,7.645c-0.124,0.006-0.233,0.018-0.37,0.018c-2.621,0.001-5.245,0.001-7.867,0.001c-1.815-0.002-3.631,0.001-5.446-0.004
		L675.373,446.156z M670.434,458.847c5.87,0.01,11.74,0.012,17.607,0.003l3.259,8.412c-8.045,0.004-16.09,0.004-24.135-0.015
		L670.434,458.847z M708.826,524.023c-0.82,0.789-2.152,0.804-3.022,0.054c-1.02-0.879-2.158-1.616-3.19-2.483
		c-1.47-1.237-2.893-2.53-4.327-3.81c-0.718-0.641-1.325-0.673-2.06,0.064c-1.472,1.479-2.994,2.909-4.557,4.29
		c-0.951,0.839-1.929,1.754-3.063,2.239c-0.707,0.304-1.97,0.182-2.565-0.283c-1.648-1.283-3.019-2.913-4.608-4.277
		c-1.063-0.91-2.26-1.72-3.521-2.306c-0.322-0.149-1.121,0.722-1.697,1.129c-1.275,0.899-2.115,2.289-3.714,2.884
		c-0.938,0.35-1.656,1.333-2.434,2.076c-0.637,0.608-1.211,1.282-1.788,1.9c-1.652-1.535-3.201-3.06-4.843-4.479
		c-1.414-1.223-2.923-2.341-4.418-3.468c-0.159-0.119-0.579-0.088-0.755,0.042c-1.732,1.279-3.504,2.517-5.134,3.92
		c-1.418,1.222-2.667,2.642-3.864,3.847c-1.259-0.892-2.519-1.711-3.699-2.613l18.559-47.693c0.044,0.041,0.894-1.197,1.854-1.951
		c0.781-0.613,1.72-0.758,1.649-0.824c0.953-0.641,19.595-0.686,21.027-0.102c0.437,0.051,0.837,0.15,1.21,0.288
		c1.261,0.089,3.223,1.054,3.308,0.986l1.005,1.234l17.944,46.327C711.01,522.002,709.899,522.994,708.826,524.023z"/>
	<path fill="#FFFFFF" d="M831.183,431.189c0.811-0.697,1.214-1.622,1.214-2.767v-1.718c0-1.017-0.403-1.909-1.214-2.672
		c-0.809-0.764-1.753-1.146-2.83-1.146H757.75c-2.969,0-5.057,0.604-6.271,1.812c-1.214,1.211-1.819,3.088-1.819,5.632v118.533
		c0,2.419,0.504,4.295,1.516,5.632c1.013,1.336,3.137,2.004,6.372,2.004h70.805c1.077,0,2.021-0.382,2.83-1.146
		c0.811-0.763,1.214-1.653,1.214-2.672v-1.718c0-1.145-0.403-2.067-1.214-2.769c-0.809-0.696-1.753-1.049-2.83-1.049h-53.679
		c-2.426-3.146-4.815-6.246-7.234-9.384c2.334-3.072,4.738-6.237,7.098-9.343c-0.647-1.229-1.127-2.463-1.867-3.464
		c-1.199-1.619-2.545-3.115-3.883-4.604c-0.822-0.914-1.127-2.659-0.42-3.679c0.627-0.905,1.338-1.749,2.074-2.553
		c1.642-1.799,3.405-3.489,4.081-5.886c-2.429-3.185-6.036-9.305-8.403-12.41c0.992-1.123,6.943-1.947,8.061-1.948
		c4.277-0.003,8.556,0.016,12.833-0.015c0.119-0.001,0.228,0.004,0.329,0.015h4.405v-0.036h1.358c0.335-0.065,0.81-0.05,1.473,0
		h8.819c0.826-0.136,1.94-1.067,2.111-1.714c0.451-1.722-0.979-5.289-2.247-5.52H793.9c-0.108,0-0.219,0-0.34,0
		c-0.003,0-0.005,0-0.008,0h-4.1v-0.088h-1.717c-0.124,0.043-0.267,0.07-0.446,0.069c-4.664-0.021-9.327,0.006-13.989-0.054
		c-0.426-0.006-6.626-2.263-7.844-3.412c0.972-1.134,3.182-4.995,3.725-5.766c0.757-1.066,1.427-2.208,2.229-3.228
		c0.976-1.241,2.065-2.377,3.072-3.592c0.153-0.184,0.271-0.657,0.17-0.805c-0.937-1.372-1.878-2.746-2.909-4.031
		c-1.398-1.745-2.874-3.412-4.313-5.105c0.279-0.407,0.534-0.755,0.766-1.121c0.737-1.166,1.379-2.418,2.216-3.488
		c1.236-1.584,2.611-3.037,3.918-4.558c0.118-0.138,0.263-0.409,0.216-0.532c-0.303-0.766-0.544-1.607-1.014-2.238
		c-1.601-2.152-3.637-3.87-4.91-6.367c-0.688-1.347-0.819-2.211,0.13-3.282c0.796-0.899,1.534-1.859,2.274-2.815
		c0.945-1.22,1.865-2.462,2.796-3.694c0.065-0.088,0.117-0.176,0.171-0.263h54.359C829.43,432.239,830.374,431.89,831.183,431.189z
		 M766.531,504.566c0.703,0.844,1.518,1.573,2.215,2.423c0.604,0.735,0.415,2.184-0.209,2.992c-0.816,1.054-1.536,2.196-2.353,3.248
		c-1.065,1.373-2.18,2.703-3.288,4.036c-0.622,0.748-0.668,1.358,0.056,2.135c1.354,1.457,2.646,2.986,3.896,4.555
		c0.759,0.954,1.549,1.957,2.002,3.095c0.271,0.678,0.163,1.839-0.216,2.463c-0.752,1.249-1.836,2.251-2.73,3.403
		c-0.939,1.212-1.817,2.481-2.726,3.724c-0.184,0.255-0.455,0.472-0.544,0.759c-0.087,0.294-0.122,0.778,0.033,0.963
		c1.059,1.256,2.648,2.254,3.161,3.718c0.762,2.165,2.622,3.14,3.612,5.068h-9.666v-43.25c0.147-0.313,2.75-5.015,2.829-4.835
		C763.542,501.213,765.095,502.842,766.531,504.566z M765.93,436.476c-0.928,1.266-2.055,2.353-3.054,3.56
		c-0.174,0.21-0.289,0.686-0.194,0.921c0.896,2.223,2.533,3.805,3.992,5.549c0.875,1.044,1.75,2.171,2.285,3.435
		c0.263,0.612-0.017,1.836-0.453,2.413c-1.571,2.074-3.333,3.972-4.979,5.978c-0.448,0.546-0.783,1.218-1.1,1.873
		c-0.092,0.19-0.029,0.653,0.113,0.769c2.271,1.842,3.61,4.556,5.372,6.872c0.378,0.498,0.835,0.978,1.054,1.559
		c0.518,1.369-0.522,2.115-1.151,3.017c-0.942,1.343-2.502,2.152-2.813,4.06c-0.057,0.341-0.619,0.557-0.894,0.885
		c-0.581,0.691-1.138,1.416-1.748,2.19c0.124,0.268,0.122,0.345-0.082,0.104c0.028-0.036,0.053-0.068,0.082-0.104
		c-0.36-0.773-1.792-3.163-2.586-4.238v-43.076h9.021C767.853,433.686,766.927,435.118,765.93,436.476z"/>
	<g>
		<path fill-rule="evenodd" clip-rule="evenodd" fill="#FFFFFF" d="M341.793,473.485c-0.124-4.107-0.381-8.129-0.797-12.26
			c-0.231-2.31-0.518-4.614-0.768-6.92c-0.256-2.36-0.536-4.725-1.323-7.01c-0.127-0.37-0.775-3.036-1.4-3.052
			c-0.502-0.016-1.04,2.02-1.141,2.302c-0.896,2.51-1.391,5.899-1.764,8.499c-0.804,5.581-1.191,10.356-1.477,15.97
			c-0.106,2.076-0.327,18.765-0.392,20.839c-0.005,0.388-0.014,0.777-0.018,1.167c-0.027,2.671,0.068,5.346,0.194,8.014
			c0.318,6.741,0.544,13.485,1.082,20.216c0.287,3.596,0.645,7.188,1.215,10.76c0.238,1.484,0.507,3.028,1.02,4.465
			c1.213,3.386,2.099-0.958,2.283-2.011c1.122-6.393,1.627-9.729,2.492-22.215c0.329-4.747,0.873-19.662,0.873-19.662
			C341.864,491.16,341.837,474.913,341.793,473.485z"/>
		<g>
			<path d="M388.974,489.413c-11.926-15.161-23.85-30.323-35.775-45.485c-4.873-6.195-9.743-12.392-14.622-18.583
				c-1.119-1.419-1.669-1.408-2.81,0.021c-0.095,0.117-0.19,0.235-0.285,0.355c-16.703,21.238-33.407,42.478-50.111,63.715
				c-1.287,1.636-1.285,2.256,0.004,3.898c14.456,18.379,28.911,36.757,43.366,55.136c2.413,3.068,4.821,6.141,7.248,9.197
				c0.856,1.079,1.497,1.062,2.38,0.015c0.147-0.173,0.286-0.353,0.428-0.53c3.059-3.889,6.077-7.813,9.162-11.681
				c5.492-6.878,23.887-33.249,22.686-33.977c-0.506-0.308-15.145,16.838-17.68,20.095c-2.469,3.171-4.981,6.31-7.449,9.479
				c-1.902,2.445-3.778,4.909-5.681,7.353c-0.849,1.09-1.708,2.171-2.556,3.261c-0.044,0.057-0.086,0.117-0.133,0.172
				c-15.907-20.226-31.715-40.325-47.561-60.472c15.867-20.173,31.688-40.29,47.597-60.518
				c15.943,20.271,31.769,40.392,47.602,60.526c0.093,0.116-1.61,2.388-1.78,2.636c-2.694,3.99-4.656,6.908-6.192,9.121
				c-0.107,0.153-0.694,1.069-0.428,1.287c0.265,0.219,1.302-0.676,1.48-0.832c2.067-1.817,4.141-3.622,6.166-5.486
				c1.697-1.561,3.401-3.128,4.956-4.828C390.37,491.773,390.274,491.066,388.974,489.413z"/>
			<path fill="#FFFFFF" d="M337.167,560.973c-1.161,0-2.216-0.589-3.138-1.751c-1.92-2.418-3.829-4.847-5.738-7.275l-44.882-57.066
				c-2.003-2.552-2.004-4.446-0.004-6.989l50.425-64.105c0.507-0.635,1.596-1.998,3.358-1.998c1.769,0,2.878,1.409,3.353,2.01
				c3.682,4.673,7.359,9.349,11.037,14.025l39.361,50.045c1.535,1.951,2.584,4.162-0.109,7.108
				c-1.632,1.783-3.399,3.409-5.109,4.981c-1.739,1.601-3.535,3.177-5.271,4.702l-0.937,0.822c-1.191,1.044-2.093,1.488-3.02,1.488
				c0,0,0,0,0,0c-0.625,0-1.229-0.216-1.703-0.607c-0.339-0.277-1.989-1.848-0.027-4.648c1.301-1.875,2.918-4.27,5.034-7.406
				l1.134-1.679c0.049-0.072,0.161-0.226,0.313-0.435c0.176-0.24,0.334-0.458,0.475-0.654l-44.538-56.63l-44.417,56.474
				l44.376,56.422l0.721-0.919c0.965-1.239,1.924-2.485,2.883-3.73c0.93-1.208,1.86-2.417,2.797-3.621
				c1.24-1.593,2.49-3.177,3.741-4.761c1.24-1.57,2.479-3.141,3.708-4.72c1.338-1.719,5.635-6.816,9.577-11.362
				c8.414-9.7,8.697-9.7,10.059-9.7h0.7l0.615,0.367c0.638,0.387,1.082,1.038,1.215,1.787c0.207,1.16,0.402,2.256-9.631,16.953
				c-5.045,7.393-10.898,15.531-13.614,18.933c-1.897,2.379-3.77,4.78-5.643,7.182c-1.167,1.497-2.334,2.993-3.508,4.485
				l-0.103,0.129c-0.126,0.16-0.253,0.319-0.385,0.475C339.929,559.709,338.864,560.973,337.167,560.973z"/>
		</g>
	</g>
</g>
</svg>
